<svg width="215" height="266" xmlns="http://www.w3.org/2000/svg" xmlns:xlink="http://www.w3.org/1999/xlink" xml:space="preserve" overflow="hidden"><g transform="translate(-1517 -1182)"><g><path d="M1580.5 1189.5 1580.5 1257.36" stroke="#000000" stroke-width="6.875" stroke-linecap="butt" stroke-linejoin="round" stroke-miterlimit="10" stroke-opacity="1" fill="none" fill-rule="evenodd"/><path d="M1582.5 1376.5 1582.5 1441.24" stroke="#000000" stroke-width="6.875" stroke-linecap="butt" stroke-linejoin="round" stroke-miterlimit="10" stroke-opacity="1" fill="none" fill-rule="evenodd"/><path d="M1579.63 1255.55C1590.92 1254.74 1600.7 1263.9 1601.45 1276.03 1602.21 1288.15 1593.67 1298.64 1582.37 1299.45 1581.92 1299.48 1581.46 1299.5 1581 1299.5" stroke="#000000" stroke-width="6.875" stroke-linecap="butt" stroke-linejoin="round" stroke-miterlimit="10" stroke-opacity="1" fill="none" fill-rule="evenodd"/><path d="M1580.63 1281.55C1591.92 1280.74 1601.7 1289.9 1602.45 1302.03 1603.21 1314.15 1594.67 1324.64 1583.37 1325.45 1582.92 1325.48 1582.46 1325.5 1582 1325.5" stroke="#000000" stroke-width="6.875" stroke-linecap="butt" stroke-linejoin="round" stroke-miterlimit="10" stroke-opacity="1" fill="none" fill-rule="evenodd"/><path d="M1580.63 1307.55C1591.92 1306.74 1601.7 1315.9 1602.45 1328.03 1603.21 1340.15 1594.67 1350.64 1583.37 1351.45 1582.92 1351.48 1582.46 1351.5 1582 1351.5" stroke="#000000" stroke-width="6.875" stroke-linecap="butt" stroke-linejoin="round" stroke-miterlimit="10" stroke-opacity="1" fill="none" fill-rule="evenodd"/><path d="M1579.66 1334.55C1590.96 1333.77 1600.72 1342.74 1601.46 1354.59 1602.2 1366.44 1593.64 1376.68 1582.34 1377.45 1581.89 1377.48 1581.45 1377.5 1581 1377.5" stroke="#000000" stroke-width="6.875" stroke-linecap="butt" stroke-linejoin="round" stroke-miterlimit="10" stroke-opacity="1" fill="none" fill-rule="evenodd"/><path d="M1583.81 1299.5C1577.19 1299.63 1571.68 1295.7 1571.5 1290.73 1571.33 1285.77 1576.56 1281.63 1583.19 1281.5 1583.35 1281.5 1583.51 1281.5 1583.68 1281.5" stroke="#000000" stroke-width="6.875" stroke-linecap="butt" stroke-linejoin="round" stroke-miterlimit="10" stroke-opacity="1" fill="none" fill-rule="evenodd"/><path d="M1583.81 1351.5C1577.19 1351.63 1571.68 1347.7 1571.5 1342.73 1571.33 1337.77 1576.56 1333.63 1583.19 1333.5 1583.35 1333.5 1583.51 1333.5 1583.68 1333.5" stroke="#000000" stroke-width="6.875" stroke-linecap="butt" stroke-linejoin="round" stroke-miterlimit="10" stroke-opacity="1" fill="none" fill-rule="evenodd"/><path d="M1583.81 1325.5C1577.19 1325.63 1571.68 1321.7 1571.5 1316.73 1571.33 1311.77 1576.56 1307.63 1583.19 1307.5 1583.35 1307.5 1583.51 1307.5 1583.68 1307.5" stroke="#000000" stroke-width="6.875" stroke-linecap="butt" stroke-linejoin="round" stroke-miterlimit="10" stroke-opacity="1" fill="none" fill-rule="evenodd"/><path d="M0 0 0.000360892 66.0538" stroke="#000000" stroke-width="6.875" stroke-linecap="butt" stroke-linejoin="round" stroke-miterlimit="10" stroke-opacity="1" fill="none" fill-rule="evenodd" transform="matrix(1 0 0 -1 1668.5 1441.55)"/><path d="M0 0 0.000360892 68.0593" stroke="#000000" stroke-width="6.875" stroke-linecap="butt" stroke-linejoin="round" stroke-miterlimit="10" stroke-opacity="1" fill="none" fill-rule="evenodd" transform="matrix(1 0 0 -1 1668.5 1257.56)"/><path d="M1670.37 1377.45C1659.08 1378.26 1649.3 1369.1 1648.55 1356.97 1647.79 1344.85 1656.33 1334.36 1667.63 1333.55 1668.08 1333.52 1668.54 1333.5 1669 1333.5" stroke="#000000" stroke-width="6.875" stroke-linecap="butt" stroke-linejoin="round" stroke-miterlimit="10" stroke-opacity="1" fill="none" fill-rule="evenodd"/><path d="M1669.37 1350.45C1658.08 1351.26 1648.3 1342.1 1647.55 1329.97 1646.79 1317.85 1655.33 1307.36 1666.63 1306.55 1667.08 1306.52 1667.54 1306.5 1668 1306.5" stroke="#000000" stroke-width="6.875" stroke-linecap="butt" stroke-linejoin="round" stroke-miterlimit="10" stroke-opacity="1" fill="none" fill-rule="evenodd"/><path d="M1669.37 1324.45C1658.08 1325.26 1648.3 1316.1 1647.55 1303.97 1646.79 1291.85 1655.33 1281.36 1666.63 1280.55 1667.08 1280.52 1667.54 1280.5 1668 1280.5" stroke="#000000" stroke-width="6.875" stroke-linecap="butt" stroke-linejoin="round" stroke-miterlimit="10" stroke-opacity="1" fill="none" fill-rule="evenodd"/><path d="M1670.37 1298.45C1659.08 1299.26 1649.3 1290.1 1648.55 1277.97 1647.79 1265.85 1656.33 1255.36 1667.63 1254.55 1668.08 1254.52 1668.54 1254.5 1669 1254.5" stroke="#000000" stroke-width="6.875" stroke-linecap="butt" stroke-linejoin="round" stroke-miterlimit="10" stroke-opacity="1" fill="none" fill-rule="evenodd"/><path d="M1666.2 1333.5C1672.83 1333.39 1678.33 1337.1 1678.5 1341.79 1678.66 1346.48 1673.42 1350.38 1666.8 1350.5 1666.64 1350.5 1666.49 1350.5 1666.33 1350.5" stroke="#000000" stroke-width="6.875" stroke-linecap="butt" stroke-linejoin="round" stroke-miterlimit="10" stroke-opacity="1" fill="none" fill-rule="evenodd"/><path d="M1666.19 1280.5C1672.81 1280.37 1678.32 1284.3 1678.5 1289.27 1678.67 1294.23 1673.44 1298.37 1666.81 1298.5 1666.65 1298.5 1666.49 1298.5 1666.32 1298.5" stroke="#000000" stroke-width="6.875" stroke-linecap="butt" stroke-linejoin="round" stroke-miterlimit="10" stroke-opacity="1" fill="none" fill-rule="evenodd"/><path d="M1666.19 1306.5C1672.81 1306.37 1678.32 1310.3 1678.5 1315.27 1678.67 1320.23 1673.44 1324.37 1666.81 1324.5 1666.65 1324.5 1666.49 1324.5 1666.32 1324.5" stroke="#000000" stroke-width="6.875" stroke-linecap="butt" stroke-linejoin="round" stroke-miterlimit="10" stroke-opacity="1" fill="none" fill-rule="evenodd"/><path d="M1620.5 1255.5 1620.5 1378.13" stroke="#000000" stroke-width="6.875" stroke-linecap="round" stroke-linejoin="round" stroke-miterlimit="10" stroke-opacity="1" fill="none" fill-rule="evenodd"/><path d="M1629.5 1255.5 1629.5 1378.13" stroke="#000000" stroke-width="6.875" stroke-linecap="round" stroke-linejoin="round" stroke-miterlimit="10" stroke-opacity="1" fill="none" fill-rule="evenodd"/><text fill="#000000" fill-opacity="1" font-family="Times New Roman,Times New Roman_MSFontService,sans-serif" font-style="normal" font-variant="normal" font-weight="400" font-stretch="normal" font-size="46" text-anchor="start" direction="ltr" writing-mode="lr-tb" unicode-bidi="normal" text-decoration="none" transform="matrix(1 0 0 1 1545.74 1275)">•</text><text fill="#000000" fill-opacity="1" font-family="Times New Roman,Times New Roman_MSFontService,sans-serif" font-style="normal" font-variant="normal" font-weight="400" font-stretch="normal" font-size="46" text-anchor="start" direction="ltr" writing-mode="lr-tb" unicode-bidi="normal" text-decoration="none" transform="matrix(1 0 0 1 1687.25 1274)">•</text></g></g></svg>